<mxfile host="app.diagrams.net" modified="2022-11-05T04:27:30.636Z" agent="5.0 (Windows NT 10.0; Win64; x64) AppleWebKit/537.36 (KHTML, like Gecko) Chrome/103.0.0.0 Safari/537.36" etag="6cSckDn8K59MEyJt5rDc" version="20.5.1" type="github">
  <diagram id="C5RBs43oDa-KdzZeNtuy" name="Page-1">
    <mxGraphModel dx="1209" dy="741" grid="1" gridSize="10" guides="1" tooltips="1" connect="1" arrows="1" fold="1" page="1" pageScale="1" pageWidth="827" pageHeight="1169" math="0" shadow="0">
      <root>
        <mxCell id="WIyWlLk6GJQsqaUBKTNV-0" />
        <mxCell id="WIyWlLk6GJQsqaUBKTNV-1" parent="WIyWlLk6GJQsqaUBKTNV-0" />
        <mxCell id="YQbtP5tuttiJdsaut16U-0" style="edgeStyle=orthogonalEdgeStyle;rounded=0;orthogonalLoop=1;jettySize=auto;html=1;" edge="1" parent="WIyWlLk6GJQsqaUBKTNV-1" source="YQbtP5tuttiJdsaut16U-1">
          <mxGeometry relative="1" as="geometry">
            <mxPoint x="310" y="190" as="targetPoint" />
          </mxGeometry>
        </mxCell>
        <mxCell id="YQbtP5tuttiJdsaut16U-1" value="玩家进入&lt;br&gt;英雄选择界面" style="rounded=1;whiteSpace=wrap;html=1;" vertex="1" parent="WIyWlLk6GJQsqaUBKTNV-1">
          <mxGeometry x="260" y="110" width="100" height="50" as="geometry" />
        </mxCell>
        <mxCell id="YQbtP5tuttiJdsaut16U-3" style="edgeStyle=elbowEdgeStyle;rounded=0;orthogonalLoop=1;jettySize=auto;html=1;entryX=0.5;entryY=0;entryDx=0;entryDy=0;" edge="1" parent="WIyWlLk6GJQsqaUBKTNV-1" source="YQbtP5tuttiJdsaut16U-4" target="YQbtP5tuttiJdsaut16U-5">
          <mxGeometry relative="1" as="geometry" />
        </mxCell>
        <mxCell id="YQbtP5tuttiJdsaut16U-4" value="跳转至&lt;br&gt;游戏大厅界面" style="rounded=0;whiteSpace=wrap;html=1;fillColor=#dae8fc;strokeColor=#6c8ebf;" vertex="1" parent="WIyWlLk6GJQsqaUBKTNV-1">
          <mxGeometry x="255" y="500" width="120" height="60" as="geometry" />
        </mxCell>
        <mxCell id="YQbtP5tuttiJdsaut16U-5" value="结束" style="rounded=1;whiteSpace=wrap;html=1;fillColor=#dae8fc;strokeColor=#6c8ebf;" vertex="1" parent="WIyWlLk6GJQsqaUBKTNV-1">
          <mxGeometry x="270" y="585" width="90" height="40" as="geometry" />
        </mxCell>
        <mxCell id="YQbtP5tuttiJdsaut16U-6" value="玩家进入&lt;br&gt;结算界面" style="rounded=1;whiteSpace=wrap;html=1;fillColor=#dae8fc;strokeColor=#6c8ebf;" vertex="1" parent="WIyWlLk6GJQsqaUBKTNV-1">
          <mxGeometry x="260" y="110" width="100" height="50" as="geometry" />
        </mxCell>
        <mxCell id="YQbtP5tuttiJdsaut16U-7" style="edgeStyle=orthogonalEdgeStyle;rounded=0;orthogonalLoop=1;jettySize=auto;html=1;entryX=0.5;entryY=0;entryDx=0;entryDy=0;" edge="1" parent="WIyWlLk6GJQsqaUBKTNV-1" source="YQbtP5tuttiJdsaut16U-8">
          <mxGeometry relative="1" as="geometry">
            <mxPoint x="310" y="290" as="targetPoint" />
          </mxGeometry>
        </mxCell>
        <mxCell id="YQbtP5tuttiJdsaut16U-8" value="根据数据显示&lt;br&gt;每轮的双方英雄&lt;br&gt;、出招及结果" style="shape=parallelogram;perimeter=parallelogramPerimeter;whiteSpace=wrap;html=1;fixedSize=1;fillColor=#dae8fc;strokeColor=#6c8ebf;" vertex="1" parent="WIyWlLk6GJQsqaUBKTNV-1">
          <mxGeometry x="245" y="190" width="130" height="70" as="geometry" />
        </mxCell>
        <mxCell id="YQbtP5tuttiJdsaut16U-38" style="edgeStyle=orthogonalEdgeStyle;rounded=0;orthogonalLoop=1;jettySize=auto;html=1;exitX=0.5;exitY=1;exitDx=0;exitDy=0;entryX=0.5;entryY=0;entryDx=0;entryDy=0;" edge="1" parent="WIyWlLk6GJQsqaUBKTNV-1" source="YQbtP5tuttiJdsaut16U-36" target="YQbtP5tuttiJdsaut16U-37">
          <mxGeometry relative="1" as="geometry" />
        </mxCell>
        <mxCell id="YQbtP5tuttiJdsaut16U-36" value="根据双方胜场数&lt;br&gt;显示胜利、失败&lt;br&gt;或平局图片" style="shape=parallelogram;perimeter=parallelogramPerimeter;whiteSpace=wrap;html=1;fixedSize=1;fillColor=#dae8fc;strokeColor=#6c8ebf;" vertex="1" parent="WIyWlLk6GJQsqaUBKTNV-1">
          <mxGeometry x="250" y="290" width="130" height="70" as="geometry" />
        </mxCell>
        <mxCell id="YQbtP5tuttiJdsaut16U-39" style="edgeStyle=orthogonalEdgeStyle;rounded=0;orthogonalLoop=1;jettySize=auto;html=1;entryX=0.5;entryY=0;entryDx=0;entryDy=0;" edge="1" parent="WIyWlLk6GJQsqaUBKTNV-1" source="YQbtP5tuttiJdsaut16U-37" target="YQbtP5tuttiJdsaut16U-4">
          <mxGeometry relative="1" as="geometry" />
        </mxCell>
        <mxCell id="YQbtP5tuttiJdsaut16U-37" value="玩家按下&lt;br&gt;返回大厅按钮" style="rounded=0;whiteSpace=wrap;html=1;fillColor=#dae8fc;strokeColor=#6c8ebf;" vertex="1" parent="WIyWlLk6GJQsqaUBKTNV-1">
          <mxGeometry x="255" y="400" width="120" height="60" as="geometry" />
        </mxCell>
      </root>
    </mxGraphModel>
  </diagram>
</mxfile>
